<?xml version="1.0" encoding="UTF-8"?><svg style="width: 800px; height: 500px;" viewBox="0 0 800 500" xmlns="http://www.w3.org/2000/svg" xmlns:xlink="http://www.w3.org/1999/xlink"><line x2="106" y2="183" x1="106" y1="183" stroke="#000000" stroke-width="3" stroke-linecap="round" data-bihua="1"></line><line x2="228" y2="168" x1="228" y1="168" stroke="#000000" stroke-width="3" stroke-linecap="round" data-bihua="2"></line><line x2="228" y2="168" x1="234" y1="162" stroke="#000000" stroke-width="3" stroke-linecap="round" data-bihua="2"></line><line x2="234" y2="162" x1="258" y1="148" stroke="#000000" stroke-width="3" stroke-linecap="round" data-bihua="2"></line><line x2="258" y2="148" x1="296" y1="137" stroke="#000000" stroke-width="3" stroke-linecap="round" data-bihua="2"></line><line x2="296" y2="137" x1="354" y1="128" stroke="#000000" stroke-width="3" stroke-linecap="round" data-bihua="2"></line><line x2="354" y2="128" x1="401" y1="126" stroke="#000000" stroke-width="3" stroke-linecap="round" data-bihua="2"></line><line x2="401" y2="126" x1="434" y1="128" stroke="#000000" stroke-width="3" stroke-linecap="round" data-bihua="2"></line><line x2="434" y2="128" x1="438" y1="132" stroke="#000000" stroke-width="3" stroke-linecap="round" data-bihua="2"></line><line x2="438" y2="132" x1="439" y1="135" stroke="#000000" stroke-width="3" stroke-linecap="round" data-bihua="2"></line><line x2="439" y2="135" x1="436" y1="141" stroke="#000000" stroke-width="3" stroke-linecap="round" data-bihua="2"></line><line x2="436" y2="141" x1="419" y1="152" stroke="#000000" stroke-width="3" stroke-linecap="round" data-bihua="2"></line><line x2="419" y2="152" x1="408" y1="158" stroke="#000000" stroke-width="3" stroke-linecap="round" data-bihua="2"></line><line x2="408" y2="158" x1="391" y1="164" stroke="#000000" stroke-width="3" stroke-linecap="round" data-bihua="2"></line><line x2="391" y2="164" x1="386" y1="167" stroke="#000000" stroke-width="3" stroke-linecap="round" data-bihua="2"></line><line x2="386" y2="167" x1="374" y1="172" stroke="#000000" stroke-width="3" stroke-linecap="round" data-bihua="2"></line><line x2="374" y2="172" x1="370" y1="174" stroke="#000000" stroke-width="3" stroke-linecap="round" data-bihua="2"></line><line x2="370" y2="174" x1="373" y1="174" stroke="#000000" stroke-width="3" stroke-linecap="round" data-bihua="2"></line><line x2="373" y2="174" x1="381" y1="174" stroke="#000000" stroke-width="3" stroke-linecap="round" data-bihua="2"></line><line x2="381" y2="174" x1="394" y1="173" stroke="#000000" stroke-width="3" stroke-linecap="round" data-bihua="2"></line><line x2="394" y2="173" x1="414" y1="170" stroke="#000000" stroke-width="3" stroke-linecap="round" data-bihua="2"></line><line x2="414" y2="170" x1="417" y1="170" stroke="#000000" stroke-width="3" stroke-linecap="round" data-bihua="2"></line><line x2="256" y2="234" x1="256" y1="234" stroke="#000000" stroke-width="3" stroke-linecap="round" data-bihua="3"></line><line x2="256" y2="234" x1="266" y1="234" stroke="#000000" stroke-width="3" stroke-linecap="round" data-bihua="3"></line><line x2="266" y2="234" x1="282" y1="234" stroke="#000000" stroke-width="3" stroke-linecap="round" data-bihua="3"></line><line x2="282" y2="234" x1="305" y1="234" stroke="#000000" stroke-width="3" stroke-linecap="round" data-bihua="3"></line><line x2="305" y2="234" x1="354" y1="229" stroke="#000000" stroke-width="3" stroke-linecap="round" data-bihua="3"></line><line x2="354" y2="229" x1="382" y1="226" stroke="#000000" stroke-width="3" stroke-linecap="round" data-bihua="3"></line><line x2="382" y2="226" x1="420" y1="223" stroke="#000000" stroke-width="3" stroke-linecap="round" data-bihua="3"></line><line x2="420" y2="223" x1="424" y1="223" stroke="#000000" stroke-width="3" stroke-linecap="round" data-bihua="3"></line><line x2="424" y2="223" x1="423" y1="224" stroke="#000000" stroke-width="3" stroke-linecap="round" data-bihua="3"></line><line x2="423" y2="224" x1="420" y1="226" stroke="#000000" stroke-width="3" stroke-linecap="round" data-bihua="3"></line><line x2="420" y2="226" x1="394" y1="240" stroke="#000000" stroke-width="3" stroke-linecap="round" data-bihua="3"></line><line x2="394" y2="240" x1="367" y1="253" stroke="#000000" stroke-width="3" stroke-linecap="round" data-bihua="3"></line><line x2="367" y2="253" x1="348" y1="264" stroke="#000000" stroke-width="3" stroke-linecap="round" data-bihua="3"></line><line x2="348" y2="264" x1="344" y1="269" stroke="#000000" stroke-width="3" stroke-linecap="round" data-bihua="3"></line><line x2="344" y2="269" x1="344" y1="270" stroke="#000000" stroke-width="3" stroke-linecap="round" data-bihua="3"></line><line x2="344" y2="270" x1="351" y1="272" stroke="#000000" stroke-width="3" stroke-linecap="round" data-bihua="3"></line><line x2="351" y2="272" x1="362" y1="274" stroke="#000000" stroke-width="3" stroke-linecap="round" data-bihua="3"></line><line x2="362" y2="274" x1="384" y1="276" stroke="#000000" stroke-width="3" stroke-linecap="round" data-bihua="3"></line><line x2="384" y2="276" x1="412" y1="279" stroke="#000000" stroke-width="3" stroke-linecap="round" data-bihua="3"></line><line x2="412" y2="279" x1="435" y1="282" stroke="#000000" stroke-width="3" stroke-linecap="round" data-bihua="3"></line><line x2="435" y2="282" x1="438" y1="285" stroke="#000000" stroke-width="3" stroke-linecap="round" data-bihua="3"></line><line x2="438" y2="285" x1="438" y1="286" stroke="#000000" stroke-width="3" stroke-linecap="round" data-bihua="3"></line><line x2="438" y2="286" x1="434" y1="292" stroke="#000000" stroke-width="3" stroke-linecap="round" data-bihua="3"></line><line x2="434" y2="292" x1="427" y1="296" stroke="#000000" stroke-width="3" stroke-linecap="round" data-bihua="3"></line><line x2="427" y2="296" x1="418" y1="304" stroke="#000000" stroke-width="3" stroke-linecap="round" data-bihua="3"></line><line x2="418" y2="304" x1="416" y1="306" stroke="#000000" stroke-width="3" stroke-linecap="round" data-bihua="3"></line><line x2="416" y2="306" x1="414" y1="308" stroke="#000000" stroke-width="3" stroke-linecap="round" data-bihua="3"></line><line x2="592" y2="157" x1="592" y1="157" stroke="#000000" stroke-width="3" stroke-linecap="round" data-bihua="4"></line><line x2="592" y2="157" x1="608" y1="153" stroke="#000000" stroke-width="3" stroke-linecap="round" data-bihua="4"></line><line x2="608" y2="153" x1="623" y1="150" stroke="#000000" stroke-width="3" stroke-linecap="round" data-bihua="4"></line><line x2="623" y2="150" x1="631" y1="149" stroke="#000000" stroke-width="3" stroke-linecap="round" data-bihua="4"></line><line x2="631" y2="149" x1="632" y1="149" stroke="#000000" stroke-width="3" stroke-linecap="round" data-bihua="4"></line><line x2="632" y2="149" x1="632" y1="150" stroke="#000000" stroke-width="3" stroke-linecap="round" data-bihua="4"></line><line x2="632" y2="150" x1="630" y1="152" stroke="#000000" stroke-width="3" stroke-linecap="round" data-bihua="4"></line><line x2="630" y2="152" x1="622" y1="160" stroke="#000000" stroke-width="3" stroke-linecap="round" data-bihua="4"></line><line x2="622" y2="160" x1="608" y1="172" stroke="#000000" stroke-width="3" stroke-linecap="round" data-bihua="4"></line><line x2="608" y2="172" x1="592" y1="188" stroke="#000000" stroke-width="3" stroke-linecap="round" data-bihua="4"></line><line x2="592" y2="188" x1="588" y1="199" stroke="#000000" stroke-width="3" stroke-linecap="round" data-bihua="4"></line><line x2="588" y2="199" x1="590" y1="204" stroke="#000000" stroke-width="3" stroke-linecap="round" data-bihua="4"></line><line x2="590" y2="204" x1="598" y1="208" stroke="#000000" stroke-width="3" stroke-linecap="round" data-bihua="4"></line><line x2="598" y2="208" x1="612" y1="212" stroke="#000000" stroke-width="3" stroke-linecap="round" data-bihua="4"></line><line x2="612" y2="212" x1="620" y1="213" stroke="#000000" stroke-width="3" stroke-linecap="round" data-bihua="4"></line><line x2="620" y2="213" x1="623" y1="214" stroke="#000000" stroke-width="3" stroke-linecap="round" data-bihua="4"></line><line x2="623" y2="214" x1="623" y1="215" stroke="#000000" stroke-width="3" stroke-linecap="round" data-bihua="4"></line><line x2="623" y2="215" x1="623" y1="216" stroke="#000000" stroke-width="3" stroke-linecap="round" data-bihua="4"></line><line x2="623" y2="216" x1="620" y1="222" stroke="#000000" stroke-width="3" stroke-linecap="round" data-bihua="4"></line><line x2="620" y2="222" x1="617" y1="227" stroke="#000000" stroke-width="3" stroke-linecap="round" data-bihua="4"></line><line x2="617" y2="227" x1="612" y1="235" stroke="#000000" stroke-width="3" stroke-linecap="round" data-bihua="4"></line><line x2="612" y2="235" x1="610" y1="240" stroke="#000000" stroke-width="3" stroke-linecap="round" data-bihua="4"></line><line x2="610" y2="240" x1="608" y1="246" stroke="#000000" stroke-width="3" stroke-linecap="round" data-bihua="4"></line><line x2="608" y2="246" x1="608" y1="250" stroke="#000000" stroke-width="3" stroke-linecap="round" data-bihua="4"></line><line x2="608" y2="250" x1="608" y1="252" stroke="#000000" stroke-width="3" stroke-linecap="round" data-bihua="4"></line><line x2="608" y2="252" x1="607" y1="254" stroke="#000000" stroke-width="3" stroke-linecap="round" data-bihua="4"></line><line x2="607" y2="254" x1="605" y1="256" stroke="#000000" stroke-width="3" stroke-linecap="round" data-bihua="4"></line><line x2="122" y2="240" x1="122" y1="240" stroke="#000000" stroke-width="3" stroke-linecap="round" data-bihua="5"></line><line x2="122" y2="240" x1="126" y1="239" stroke="#000000" stroke-width="3" stroke-linecap="round" data-bihua="5"></line><line x2="126" y2="239" x1="142" y1="234" stroke="#000000" stroke-width="3" stroke-linecap="round" data-bihua="5"></line><line x2="142" y2="234" x1="224" y1="218" stroke="#000000" stroke-width="3" stroke-linecap="round" data-bihua="5"></line><line x2="224" y2="218" x1="285" y1="212" stroke="#000000" stroke-width="3" stroke-linecap="round" data-bihua="5"></line><line x2="285" y2="212" x1="327" y1="209" stroke="#000000" stroke-width="3" stroke-linecap="round" data-bihua="5"></line><line x2="327" y2="209" x1="332" y1="211" stroke="#000000" stroke-width="3" stroke-linecap="round" data-bihua="5"></line><line x2="332" y2="211" x1="320" y1="226" stroke="#000000" stroke-width="3" stroke-linecap="round" data-bihua="5"></line><line x2="320" y2="226" x1="288" y1="248" stroke="#000000" stroke-width="3" stroke-linecap="round" data-bihua="5"></line><line x2="288" y2="248" x1="238" y1="271" stroke="#000000" stroke-width="3" stroke-linecap="round" data-bihua="5"></line><line x2="238" y2="271" x1="188" y1="295" stroke="#000000" stroke-width="3" stroke-linecap="round" data-bihua="5"></line><line x2="188" y2="295" x1="182" y1="298" stroke="#000000" stroke-width="3" stroke-linecap="round" data-bihua="5"></line><line x2="182" y2="298" x1="186" y1="298" stroke="#000000" stroke-width="3" stroke-linecap="round" data-bihua="5"></line><line x2="186" y2="298" x1="220" y1="292" stroke="#000000" stroke-width="3" stroke-linecap="round" data-bihua="5"></line><line x2="220" y2="292" x1="269" y1="280" stroke="#000000" stroke-width="3" stroke-linecap="round" data-bihua="5"></line><line x2="269" y2="280" x1="333" y1="267" stroke="#000000" stroke-width="3" stroke-linecap="round" data-bihua="5"></line><line x2="333" y2="267" x1="378" y1="262" stroke="#000000" stroke-width="3" stroke-linecap="round" data-bihua="5"></line><line x2="378" y2="262" x1="382" y1="262" stroke="#000000" stroke-width="3" stroke-linecap="round" data-bihua="5"></line><line x2="382" y2="262" x1="382" y1="266" stroke="#000000" stroke-width="3" stroke-linecap="round" data-bihua="5"></line><line x2="382" y2="266" x1="376" y1="276" stroke="#000000" stroke-width="3" stroke-linecap="round" data-bihua="5"></line><line x2="376" y2="276" x1="370" y1="285" stroke="#000000" stroke-width="3" stroke-linecap="round" data-bihua="5"></line><line x2="370" y2="285" x1="366" y1="298" stroke="#000000" stroke-width="3" stroke-linecap="round" data-bihua="5"></line><line x2="366" y2="298" x1="371" y1="305" stroke="#000000" stroke-width="3" stroke-linecap="round" data-bihua="5"></line><line x2="371" y2="305" x1="391" y1="311" stroke="#000000" stroke-width="3" stroke-linecap="round" data-bihua="5"></line><line x2="391" y2="311" x1="427" y1="312" stroke="#000000" stroke-width="3" stroke-linecap="round" data-bihua="5"></line><line x2="427" y2="312" x1="488" y1="312" stroke="#000000" stroke-width="3" stroke-linecap="round" data-bihua="5"></line><line x2="488" y2="312" x1="502" y1="312" stroke="#000000" stroke-width="3" stroke-linecap="round" data-bihua="5"></line><line x2="502" y2="312" x1="502" y1="313" stroke="#000000" stroke-width="3" stroke-linecap="round" data-bihua="5"></line><line x2="502" y2="313" x1="496" y1="318" stroke="#000000" stroke-width="3" stroke-linecap="round" data-bihua="5"></line><line x2="496" y2="318" x1="482" y1="328" stroke="#000000" stroke-width="3" stroke-linecap="round" data-bihua="5"></line><line x2="482" y2="328" x1="465" y1="338" stroke="#000000" stroke-width="3" stroke-linecap="round" data-bihua="5"></line><line x2="465" y2="338" x1="465" y1="338" stroke="#000000" stroke-width="3" stroke-linecap="round" data-bihua="5"></line><line x2="465" y2="338" x1="466" y1="338" stroke="#000000" stroke-width="3" stroke-linecap="round" data-bihua="5"></line><line x2="466" y2="338" x1="470" y1="338" stroke="#000000" stroke-width="3" stroke-linecap="round" data-bihua="5"></line><line x2="470" y2="338" x1="474" y1="338" stroke="#000000" stroke-width="3" stroke-linecap="round" data-bihua="5"></line><line x2="452" y2="355" x1="452" y1="355" stroke="#3974c0" stroke-width="3" stroke-linecap="round" data-bihua="6"></line><line x2="209" y2="330" x1="209" y1="330" stroke="#3974c0" stroke-width="3" stroke-linecap="round" data-bihua="7"></line><line x2="209" y2="330" x1="216" y1="326" stroke="#3974c0" stroke-width="3" stroke-linecap="round" data-bihua="7"></line><line x2="216" y2="326" x1="249" y1="316" stroke="#3974c0" stroke-width="3" stroke-linecap="round" data-bihua="7"></line><line x2="249" y2="316" x1="312" y1="298" stroke="#3974c0" stroke-width="3" stroke-linecap="round" data-bihua="7"></line><line x2="312" y2="298" x1="446" y1="263" stroke="#3974c0" stroke-width="3" stroke-linecap="round" data-bihua="7"></line><line x2="446" y2="263" x1="512" y1="247" stroke="#3974c0" stroke-width="3" stroke-linecap="round" data-bihua="7"></line><line x2="512" y2="247" x1="572" y1="236" stroke="#3974c0" stroke-width="3" stroke-linecap="round" data-bihua="7"></line><line x2="572" y2="236" x1="589" y1="234" stroke="#3974c0" stroke-width="3" stroke-linecap="round" data-bihua="7"></line><line x2="589" y2="234" x1="589" y1="235" stroke="#3974c0" stroke-width="3" stroke-linecap="round" data-bihua="7"></line><line x2="589" y2="235" x1="568" y1="263" stroke="#3974c0" stroke-width="3" stroke-linecap="round" data-bihua="7"></line><line x2="568" y2="263" x1="517" y1="306" stroke="#3974c0" stroke-width="3" stroke-linecap="round" data-bihua="7"></line><line x2="517" y2="306" x1="452" y1="350" stroke="#3974c0" stroke-width="3" stroke-linecap="round" data-bihua="7"></line><line x2="452" y2="350" x1="366" y1="404" stroke="#3974c0" stroke-width="3" stroke-linecap="round" data-bihua="7"></line><line x2="366" y2="404" x1="354" y1="412" stroke="#3974c0" stroke-width="3" stroke-linecap="round" data-bihua="7"></line><line x2="354" y2="412" x1="354" y1="412" stroke="#3974c0" stroke-width="3" stroke-linecap="round" data-bihua="7"></line><line x2="354" y2="412" x1="383" y1="403" stroke="#3974c0" stroke-width="3" stroke-linecap="round" data-bihua="7"></line><line x2="383" y2="403" x1="435" y1="381" stroke="#3974c0" stroke-width="3" stroke-linecap="round" data-bihua="7"></line><line x2="435" y2="381" x1="538" y1="343" stroke="#3974c0" stroke-width="3" stroke-linecap="round" data-bihua="7"></line><line x2="538" y2="343" x1="617" y1="314" stroke="#3974c0" stroke-width="3" stroke-linecap="round" data-bihua="7"></line><line x2="617" y2="314" x1="664" y1="298" stroke="#3974c0" stroke-width="3" stroke-linecap="round" data-bihua="7"></line><line x2="664" y2="298" x1="667" y1="298" stroke="#3974c0" stroke-width="3" stroke-linecap="round" data-bihua="7"></line><line x2="667" y2="298" x1="661" y1="302" stroke="#3974c0" stroke-width="3" stroke-linecap="round" data-bihua="7"></line><line x2="661" y2="302" x1="646" y1="316" stroke="#3974c0" stroke-width="3" stroke-linecap="round" data-bihua="7"></line><line x2="646" y2="316" x1="628" y1="330" stroke="#3974c0" stroke-width="3" stroke-linecap="round" data-bihua="7"></line><line x2="628" y2="330" x1="605" y1="350" stroke="#3974c0" stroke-width="3" stroke-linecap="round" data-bihua="7"></line><line x2="605" y2="350" x1="600" y1="359" stroke="#3974c0" stroke-width="3" stroke-linecap="round" data-bihua="7"></line><line x2="600" y2="359" x1="608" y1="362" stroke="#3974c0" stroke-width="3" stroke-linecap="round" data-bihua="7"></line><line x2="608" y2="362" x1="627" y1="362" stroke="#3974c0" stroke-width="3" stroke-linecap="round" data-bihua="7"></line><line x2="627" y2="362" x1="668" y1="355" stroke="#3974c0" stroke-width="3" stroke-linecap="round" data-bihua="7"></line><line x2="668" y2="355" x1="710" y1="346" stroke="#3974c0" stroke-width="3" stroke-linecap="round" data-bihua="7"></line><line x2="710" y2="346" x1="729" y1="340" stroke="#3974c0" stroke-width="3" stroke-linecap="round" data-bihua="7"></line><line x2="729" y2="340" x1="729" y1="339" stroke="#3974c0" stroke-width="3" stroke-linecap="round" data-bihua="7"></line><line x2="729" y2="339" x1="724" y1="336" stroke="#3974c0" stroke-width="3" stroke-linecap="round" data-bihua="7"></line><line x2="724" y2="336" x1="708" y1="323" stroke="#3974c0" stroke-width="3" stroke-linecap="round" data-bihua="7"></line><line x2="708" y2="323" x1="666" y1="288" stroke="#3974c0" stroke-width="3" stroke-linecap="round" data-bihua="7"></line><line x2="666" y2="288" x1="622" y1="253" stroke="#3974c0" stroke-width="3" stroke-linecap="round" data-bihua="7"></line><line x2="622" y2="253" x1="576" y1="219" stroke="#3974c0" stroke-width="3" stroke-linecap="round" data-bihua="7"></line><line x2="576" y2="219" x1="522" y1="186" stroke="#3974c0" stroke-width="3" stroke-linecap="round" data-bihua="7"></line><line x2="522" y2="186" x1="469" y1="156" stroke="#3974c0" stroke-width="3" stroke-linecap="round" data-bihua="7"></line><line x2="469" y2="156" x1="400" y1="122" stroke="#3974c0" stroke-width="3" stroke-linecap="round" data-bihua="7"></line><line x2="400" y2="122" x1="371" y1="114" stroke="#3974c0" stroke-width="3" stroke-linecap="round" data-bihua="7"></line><line x2="371" y2="114" x1="362" y1="114" stroke="#3974c0" stroke-width="3" stroke-linecap="round" data-bihua="7"></line><line x2="362" y2="114" x1="363" y1="116" stroke="#3974c0" stroke-width="3" stroke-linecap="round" data-bihua="7"></line><line x2="363" y2="116" x1="386" y1="135" stroke="#3974c0" stroke-width="3" stroke-linecap="round" data-bihua="7"></line><line x2="386" y2="135" x1="429" y1="154" stroke="#3974c0" stroke-width="3" stroke-linecap="round" data-bihua="7"></line><line x2="429" y2="154" x1="503" y1="174" stroke="#3974c0" stroke-width="3" stroke-linecap="round" data-bihua="7"></line><line x2="503" y2="174" x1="567" y1="188" stroke="#3974c0" stroke-width="3" stroke-linecap="round" data-bihua="7"></line><line x2="567" y2="188" x1="596" y1="198" stroke="#3974c0" stroke-width="3" stroke-linecap="round" data-bihua="7"></line><line x2="596" y2="198" x1="603" y1="206" stroke="#3974c0" stroke-width="3" stroke-linecap="round" data-bihua="7"></line><line x2="603" y2="206" x1="596" y1="212" stroke="#3974c0" stroke-width="3" stroke-linecap="round" data-bihua="7"></line><line x2="596" y2="212" x1="578" y1="220" stroke="#3974c0" stroke-width="3" stroke-linecap="round" data-bihua="7"></line><line x2="578" y2="220" x1="550" y1="223" stroke="#3974c0" stroke-width="3" stroke-linecap="round" data-bihua="7"></line><line x2="550" y2="223" x1="473" y1="215" stroke="#3974c0" stroke-width="3" stroke-linecap="round" data-bihua="7"></line><line x2="473" y2="215" x1="419" y1="198" stroke="#3974c0" stroke-width="3" stroke-linecap="round" data-bihua="7"></line><line x2="419" y2="198" x1="384" y1="182" stroke="#3974c0" stroke-width="3" stroke-linecap="round" data-bihua="7"></line><line x2="384" y2="182" x1="372" y1="169" stroke="#3974c0" stroke-width="3" stroke-linecap="round" data-bihua="7"></line><line x2="372" y2="169" x1="374" y1="160" stroke="#3974c0" stroke-width="3" stroke-linecap="round" data-bihua="7"></line><line x2="374" y2="160" x1="406" y1="140" stroke="#3974c0" stroke-width="3" stroke-linecap="round" data-bihua="7"></line><line x2="406" y2="140" x1="462" y1="122" stroke="#3974c0" stroke-width="3" stroke-linecap="round" data-bihua="7"></line><line x2="462" y2="122" x1="534" y1="114" stroke="#3974c0" stroke-width="3" stroke-linecap="round" data-bihua="7"></line><line x2="534" y2="114" x1="594" y1="117" stroke="#3974c0" stroke-width="3" stroke-linecap="round" data-bihua="7"></line><line x2="594" y2="117" x1="620" y1="139" stroke="#3974c0" stroke-width="3" stroke-linecap="round" data-bihua="7"></line><line x2="620" y2="139" x1="612" y1="161" stroke="#3974c0" stroke-width="3" stroke-linecap="round" data-bihua="7"></line><line x2="612" y2="161" x1="581" y1="198" stroke="#3974c0" stroke-width="3" stroke-linecap="round" data-bihua="7"></line><line x2="581" y2="198" x1="532" y1="238" stroke="#3974c0" stroke-width="3" stroke-linecap="round" data-bihua="7"></line><line x2="532" y2="238" x1="470" y1="274" stroke="#3974c0" stroke-width="3" stroke-linecap="round" data-bihua="7"></line><line x2="470" y2="274" x1="386" y1="296" stroke="#3974c0" stroke-width="3" stroke-linecap="round" data-bihua="7"></line><line x2="386" y2="296" x1="367" y1="292" stroke="#3974c0" stroke-width="3" stroke-linecap="round" data-bihua="7"></line><line x2="367" y2="292" x1="358" y1="282" stroke="#3974c0" stroke-width="3" stroke-linecap="round" data-bihua="7"></line><line x2="358" y2="282" x1="356" y1="270" stroke="#3974c0" stroke-width="3" stroke-linecap="round" data-bihua="7"></line><line x2="356" y2="270" x1="387" y1="224" stroke="#3974c0" stroke-width="3" stroke-linecap="round" data-bihua="7"></line><line x2="387" y2="224" x1="448" y1="178" stroke="#3974c0" stroke-width="3" stroke-linecap="round" data-bihua="7"></line><line x2="448" y2="178" x1="516" y1="141" stroke="#3974c0" stroke-width="3" stroke-linecap="round" data-bihua="7"></line><line x2="516" y2="141" x1="591" y1="113" stroke="#3974c0" stroke-width="3" stroke-linecap="round" data-bihua="7"></line><line x2="591" y2="113" x1="632" y1="106" stroke="#3974c0" stroke-width="3" stroke-linecap="round" data-bihua="7"></line><line x2="632" y2="106" x1="638" y1="114" stroke="#3974c0" stroke-width="3" stroke-linecap="round" data-bihua="7"></line><line x2="638" y2="114" x1="628" y1="138" stroke="#3974c0" stroke-width="3" stroke-linecap="round" data-bihua="7"></line><line x2="628" y2="138" x1="602" y1="174" stroke="#3974c0" stroke-width="3" stroke-linecap="round" data-bihua="7"></line><line x2="602" y2="174" x1="568" y1="209" stroke="#3974c0" stroke-width="3" stroke-linecap="round" data-bihua="7"></line><line x2="568" y2="209" x1="490" y1="255" stroke="#3974c0" stroke-width="3" stroke-linecap="round" data-bihua="7"></line><line x2="490" y2="255" x1="446" y1="263" stroke="#3974c0" stroke-width="3" stroke-linecap="round" data-bihua="7"></line><line x2="446" y2="263" x1="402" y1="256" stroke="#3974c0" stroke-width="3" stroke-linecap="round" data-bihua="7"></line><line x2="402" y2="256" x1="359" y1="232" stroke="#3974c0" stroke-width="3" stroke-linecap="round" data-bihua="7"></line><line x2="359" y2="232" x1="339" y1="200" stroke="#3974c0" stroke-width="3" stroke-linecap="round" data-bihua="7"></line><line x2="339" y2="200" x1="360" y1="144" stroke="#3974c0" stroke-width="3" stroke-linecap="round" data-bihua="7"></line><line x2="360" y2="144" x1="408" y1="101" stroke="#3974c0" stroke-width="3" stroke-linecap="round" data-bihua="7"></line><line x2="408" y2="101" x1="463" y1="74" stroke="#3974c0" stroke-width="3" stroke-linecap="round" data-bihua="7"></line><line x2="463" y2="74" x1="528" y1="53" stroke="#3974c0" stroke-width="3" stroke-linecap="round" data-bihua="7"></line><line x2="528" y2="53" x1="580" y1="50" stroke="#3974c0" stroke-width="3" stroke-linecap="round" data-bihua="7"></line><line x2="580" y2="50" x1="583" y1="55" stroke="#3974c0" stroke-width="3" stroke-linecap="round" data-bihua="7"></line><line x2="583" y2="55" x1="579" y1="69" stroke="#3974c0" stroke-width="3" stroke-linecap="round" data-bihua="7"></line><line x2="579" y2="69" x1="562" y1="90" stroke="#3974c0" stroke-width="3" stroke-linecap="round" data-bihua="7"></line><line x2="562" y2="90" x1="524" y1="118" stroke="#3974c0" stroke-width="3" stroke-linecap="round" data-bihua="7"></line><line x2="524" y2="118" x1="445" y1="162" stroke="#3974c0" stroke-width="3" stroke-linecap="round" data-bihua="7"></line><line x2="445" y2="162" x1="397" y1="186" stroke="#3974c0" stroke-width="3" stroke-linecap="round" data-bihua="7"></line><line x2="196" y2="155" x1="196" y1="155" stroke="#3974c0" stroke-width="3" stroke-linecap="round" data-bihua="8"></line><line x2="196" y2="155" x1="201" y1="140" stroke="#3974c0" stroke-width="3" stroke-linecap="round" data-bihua="8"></line><line x2="201" y2="140" x1="238" y1="99" stroke="#3974c0" stroke-width="3" stroke-linecap="round" data-bihua="8"></line><line x2="238" y2="99" x1="265" y1="80" stroke="#3974c0" stroke-width="3" stroke-linecap="round" data-bihua="8"></line><line x2="265" y2="80" x1="300" y1="63" stroke="#3974c0" stroke-width="3" stroke-linecap="round" data-bihua="8"></line><line x2="300" y2="63" x1="325" y1="59" stroke="#3974c0" stroke-width="3" stroke-linecap="round" data-bihua="8"></line><line x2="325" y2="59" x1="344" y1="62" stroke="#3974c0" stroke-width="3" stroke-linecap="round" data-bihua="8"></line><line x2="344" y2="62" x1="354" y1="80" stroke="#3974c0" stroke-width="3" stroke-linecap="round" data-bihua="8"></line><line x2="354" y2="80" x1="354" y1="98" stroke="#3974c0" stroke-width="3" stroke-linecap="round" data-bihua="8"></line><line x2="354" y2="98" x1="347" y1="116" stroke="#3974c0" stroke-width="3" stroke-linecap="round" data-bihua="8"></line><line x2="347" y2="116" x1="324" y1="144" stroke="#3974c0" stroke-width="3" stroke-linecap="round" data-bihua="8"></line><line x2="324" y2="144" x1="280" y1="171" stroke="#3974c0" stroke-width="3" stroke-linecap="round" data-bihua="8"></line><line x2="280" y2="171" x1="242" y1="184" stroke="#3974c0" stroke-width="3" stroke-linecap="round" data-bihua="8"></line><line x2="242" y2="184" x1="216" y1="187" stroke="#3974c0" stroke-width="3" stroke-linecap="round" data-bihua="8"></line><line x2="216" y2="187" x1="208" y1="186" stroke="#3974c0" stroke-width="3" stroke-linecap="round" data-bihua="8"></line><line x2="208" y2="186" x1="207" y1="185" stroke="#3974c0" stroke-width="3" stroke-linecap="round" data-bihua="8"></line><line x2="207" y2="185" x1="219" y1="178" stroke="#3974c0" stroke-width="3" stroke-linecap="round" data-bihua="8"></line><line x2="219" y2="178" x1="238" y1="176" stroke="#3974c0" stroke-width="3" stroke-linecap="round" data-bihua="8"></line><line x2="238" y2="176" x1="263" y1="175" stroke="#3974c0" stroke-width="3" stroke-linecap="round" data-bihua="8"></line><line x2="263" y2="175" x1="290" y1="179" stroke="#3974c0" stroke-width="3" stroke-linecap="round" data-bihua="8"></line><line x2="290" y2="179" x1="308" y1="195" stroke="#3974c0" stroke-width="3" stroke-linecap="round" data-bihua="8"></line><line x2="308" y2="195" x1="306" y1="210" stroke="#3974c0" stroke-width="3" stroke-linecap="round" data-bihua="8"></line><line x2="306" y2="210" x1="294" y1="228" stroke="#3974c0" stroke-width="3" stroke-linecap="round" data-bihua="8"></line><line x2="294" y2="228" x1="273" y1="249" stroke="#3974c0" stroke-width="3" stroke-linecap="round" data-bihua="8"></line><line x2="273" y2="249" x1="249" y1="271" stroke="#3974c0" stroke-width="3" stroke-linecap="round" data-bihua="8"></line><line x2="249" y2="271" x1="238" y1="285" stroke="#3974c0" stroke-width="3" stroke-linecap="round" data-bihua="8"></line><line x2="238" y2="285" x1="242" y1="288" stroke="#3974c0" stroke-width="3" stroke-linecap="round" data-bihua="8"></line><line x2="242" y2="288" x1="255" y1="294" stroke="#3974c0" stroke-width="3" stroke-linecap="round" data-bihua="8"></line><line x2="255" y2="294" x1="286" y1="303" stroke="#3974c0" stroke-width="3" stroke-linecap="round" data-bihua="8"></line><line x2="286" y2="303" x1="355" y1="320" stroke="#3974c0" stroke-width="3" stroke-linecap="round" data-bihua="8"></line><line x2="355" y2="320" x1="381" y1="329" stroke="#3974c0" stroke-width="3" stroke-linecap="round" data-bihua="8"></line><line x2="381" y2="329" x1="388" y1="334" stroke="#3974c0" stroke-width="3" stroke-linecap="round" data-bihua="8"></line><line x2="388" y2="334" x1="388" y1="338" stroke="#3974c0" stroke-width="3" stroke-linecap="round" data-bihua="8"></line><line x2="388" y2="338" x1="374" y1="350" stroke="#3974c0" stroke-width="3" stroke-linecap="round" data-bihua="8"></line><line x2="374" y2="350" x1="356" y1="360" stroke="#3974c0" stroke-width="3" stroke-linecap="round" data-bihua="8"></line><line x2="356" y2="360" x1="343" y1="367" stroke="#3974c0" stroke-width="3" stroke-linecap="round" data-bihua="8"></line><line x2="343" y2="367" x1="338" y1="370" stroke="#3974c0" stroke-width="3" stroke-linecap="round" data-bihua="8"></line><line x2="338" y2="370" x1="341" y1="371" stroke="#3974c0" stroke-width="3" stroke-linecap="round" data-bihua="8"></line><line x2="341" y2="371" x1="372" y1="369" stroke="#3974c0" stroke-width="3" stroke-linecap="round" data-bihua="8"></line><line x2="372" y2="369" x1="418" y1="362" stroke="#3974c0" stroke-width="3" stroke-linecap="round" data-bihua="8"></line><line x2="418" y2="362" x1="476" y1="356" stroke="#3974c0" stroke-width="3" stroke-linecap="round" data-bihua="8"></line><line x2="476" y2="356" x1="496" y1="354" stroke="#3974c0" stroke-width="3" stroke-linecap="round" data-bihua="8"></line><line x2="496" y2="354" x1="498" y1="354" stroke="#3974c0" stroke-width="3" stroke-linecap="round" data-bihua="8"></line><line x2="498" y2="354" x1="492" y1="360" stroke="#3974c0" stroke-width="3" stroke-linecap="round" data-bihua="8"></line><line x2="492" y2="360" x1="485" y1="365" stroke="#3974c0" stroke-width="3" stroke-linecap="round" data-bihua="8"></line><line x2="485" y2="365" x1="474" y1="373" stroke="#3974c0" stroke-width="3" stroke-linecap="round" data-bihua="8"></line><line x2="474" y2="373" x1="471" y1="377" stroke="#3974c0" stroke-width="3" stroke-linecap="round" data-bihua="8"></line><line x2="471" y2="377" x1="474" y1="378" stroke="#3974c0" stroke-width="3" stroke-linecap="round" data-bihua="8"></line><line x2="474" y2="378" x1="502" y1="378" stroke="#3974c0" stroke-width="3" stroke-linecap="round" data-bihua="8"></line><line x2="502" y2="378" x1="572" y1="368" stroke="#3974c0" stroke-width="3" stroke-linecap="round" data-bihua="8"></line><line x2="572" y2="368" x1="642" y1="356" stroke="#3974c0" stroke-width="3" stroke-linecap="round" data-bihua="8"></line><line x2="642" y2="356" x1="739" y1="338" stroke="#3974c0" stroke-width="3" stroke-linecap="round" data-bihua="8"></line><line x2="739" y2="338" x1="748" y1="335" stroke="#3974c0" stroke-width="3" stroke-linecap="round" data-bihua="8"></line><line x2="748" y2="335" x1="747" y1="332" stroke="#3974c0" stroke-width="3" stroke-linecap="round" data-bihua="8"></line><line x2="747" y2="332" x1="738" y1="326" stroke="#3974c0" stroke-width="3" stroke-linecap="round" data-bihua="8"></line><line x2="738" y2="326" x1="722" y1="314" stroke="#3974c0" stroke-width="3" stroke-linecap="round" data-bihua="8"></line><line x2="722" y2="314" x1="684" y1="280" stroke="#3974c0" stroke-width="3" stroke-linecap="round" data-bihua="8"></line><line x2="684" y2="280" x1="666" y1="264" stroke="#3974c0" stroke-width="3" stroke-linecap="round" data-bihua="8"></line><line x2="666" y2="264" x1="644" y1="247" stroke="#3974c0" stroke-width="3" stroke-linecap="round" data-bihua="8"></line><line x2="644" y2="247" x1="625" y1="235" stroke="#3974c0" stroke-width="3" stroke-linecap="round" data-bihua="8"></line><line x2="625" y2="235" x1="601" y1="225" stroke="#3974c0" stroke-width="3" stroke-linecap="round" data-bihua="8"></line><line x2="601" y2="225" x1="590" y1="224" stroke="#3974c0" stroke-width="3" stroke-linecap="round" data-bihua="8"></line><line x2="590" y2="224" x1="580" y1="224" stroke="#3974c0" stroke-width="3" stroke-linecap="round" data-bihua="8"></line><line x2="580" y2="224" x1="570" y1="229" stroke="#3974c0" stroke-width="3" stroke-linecap="round" data-bihua="8"></line><line x2="570" y2="229" x1="560" y1="239" stroke="#3974c0" stroke-width="3" stroke-linecap="round" data-bihua="8"></line><line x2="560" y2="239" x1="556" y1="260" stroke="#3974c0" stroke-width="3" stroke-linecap="round" data-bihua="8"></line><line x2="556" y2="260" x1="564" y1="274" stroke="#3974c0" stroke-width="3" stroke-linecap="round" data-bihua="8"></line><line x2="564" y2="274" x1="580" y1="295" stroke="#3974c0" stroke-width="3" stroke-linecap="round" data-bihua="8"></line></svg>